# xmcd CD database file
#
# Track frame offsets:
#	187
#	21407
#	43557
#	64445
#	85012
#	106200
#	121365
#	142257
#	161227
#	188710
#	212387
#	229722
#	248450
#
# Disc length: 3601 seconds
#
# Revision: 0
# Processed by: cddbd v1.5.1PL0 Copyright (c) Steve Scherf et al.
# Submitted via: CDex 1.51
#
DISCID=b00e0f0d
DTITLE=リノス・ストリング・カルテット - いとしのシンフォニー〜クラッシクで聴く桑田佳祐
DYEAR=1998
DGENRE=ポップ (一般)
TTITLE0=ミス・ブランニュー・デイ
TTITLE1=真夏の果実
TTITLE2=YaYa〜あの時代を忘れない
TTITLE3=涙のキッス
TTITLE4=ByeBye My Love
TTITLE5=Oh！ クラウディア
TTITLE6=C調言葉にご用心
TTITLE7=みんなのうた
TTITLE8=栞のテーマ
TTITLE9=思い過ごしも恋のうち
TTITLE10=勝手にシンドバット
TTITLE11=いとしのエリー
TTITLE12=Love Affair〜秘密のデート
EXTD=YEAR: 1998
EXTT0=
EXTT1=
EXTT2=
EXTT3=
EXTT4=
EXTT5=
EXTT6=
EXTT7=
EXTT8=
EXTT9=
EXTT10=
EXTT11=
EXTT12=
PLAYORDER=
